HIERARCHY
ROOT reference
{
  OFFSET 0 0 0
  CHANNELS 6 Xposition Yposition Zposition Zrotation Xrotation Yrotation
  JOINT Hips
  {
    OFFSET 347.352 87.9396 215.108
    CHANNELS 3 Zrotation Xrotation Yrotation
    JOINT RightUpLeg
    {
      OFFSET -9.26448 -1.5905 0.0349838
      CHANNELS 3 Zrotation Xrotation Yrotation
      JOINT RightLeg
      {
        OFFSET 0.0309074 -41.8937 0.0182011
        CHANNELS 3 Zrotation Xrotation Yrotation
        JOINT RightFoot
        {
          OFFSET 0.355296 -42.3801 0.810868
          CHANNELS 3 Zrotation Xrotation Yrotation
          End Site
          {
            OFFSET 0 -7.69 17.5
          }
        }
      }
    }
    JOINT LeftUpLeg
    {
      OFFSET 9.27369 -1.59127 -0.0547904
      CHANNELS 3 Zrotation Xrotation Yrotation
      JOINT LeftLeg
      {
        OFFSET 0.0553589 -41.8938 0.0587288
        CHANNELS 3 Zrotation Xrotation Yrotation
        JOINT LeftFoot
        {
          OFFSET 0.217916 -41.5497 -0.688939
          CHANNELS 3 Zrotation Xrotation Yrotation
          End Site
          {
            OFFSET 0 -7.69 17.5
          }
        }
      }
    }
    JOINT Spine
    {
      OFFSET 0.0383554 14.2988 0.0402393
      CHANNELS 3 Zrotation Xrotation Yrotation
      JOINT Spine1
      {
        OFFSET 0.0188251 9.70742 0.0136471
        CHANNELS 3 Zrotation Xrotation Yrotation
        JOINT Spine2
        {
          OFFSET 0.0421292 10.115 0.0126686
          CHANNELS 3 Zrotation Xrotation Yrotation
          JOINT Spine3
          {
            OFFSET 0.0499826 9.71803 0.0151296
            CHANNELS 3 Zrotation Xrotation Yrotation
            JOINT Neck
            {
              OFFSET 0.04654 10.3867 0.0448026
              CHANNELS 3 Zrotation Xrotation Yrotation
              JOINT Head
              {
                OFFSET 0.0370611 9.47282 0.0189897
                CHANNELS 3 Zrotation Xrotation Yrotation
                End Site
                {
                  OFFSET 0 15.95 0
                }
              }
            }
            JOINT RightShoulder
            {
              OFFSET -3.19309 6.93146 -0.00624137
              CHANNELS 3 Zrotation Xrotation Yrotation
              JOINT RightArm
              {
                OFFSET -12.7764 0.00688168 -0.00548706
                CHANNELS 3 Zrotation Xrotation Yrotation
                JOINT RightForeArm
                {
                  OFFSET -26.5073 -0.0244096 0.0677859
                  CHANNELS 3 Zrotation Xrotation Yrotation
                  JOINT RightHand
                  {
                    OFFSET -26.0056 -0.000416843 0.0508974
                    CHANNELS 3 Zrotation Xrotation Yrotation
                    JOINT RightHandThumb1
                    {
                      OFFSET -2.48905 0.190105 3.12053
                      CHANNELS 3 Zrotation Xrotation Yrotation
                      JOINT RightHandThumb2
                      {
                        OFFSET -3.68274 0 0
                        CHANNELS 3 Zrotation Xrotation Yrotation
                        JOINT RightHandThumb3
                        {
                          OFFSET -2.55832 0 0
                          CHANNELS 3 Zrotation Xrotation Yrotation
                          End Site
                          {
                            OFFSET -2.194 0 0
                          }
                        }
                      }
                    }
                    JOINT RightInHandIndex
                    {
                      OFFSET -3.22368 0.508421 1.97842
                      CHANNELS 3 Zrotation Xrotation Yrotation
                      JOINT RightHandIndex1
                      {
                        OFFSET -5.21684 -0.091368 0.999158
                        CHANNELS 3 Zrotation Xrotation Yrotation
                        JOINT RightHandIndex2
                        {
                          OFFSET -3.61937 0 0
                          CHANNELS 3 Zrotation Xrotation Yrotation
                          JOINT RightHandIndex3
                          {
                            OFFSET -2.0521 0 0
                            CHANNELS 3 Zrotation Xrotation Yrotation
                            End Site
                            {
                              OFFSET -1.805 0 0
                            }
                          }
                        }
                      }
                    }
                    JOINT RightInHandMiddle
                    {
                      OFFSET -3.38211 0.517263 0.756737
                      CHANNELS 3 Zrotation Xrotation Yrotation
                      JOINT RightHandMiddle1
                      {
                        OFFSET -5.17411 -0.084 0.313895
                        CHANNELS 3 Zrotation Xrotation Yrotation
                        JOINT RightHandMiddle2
                        {
                          OFFSET -3.94947 0 0
                          CHANNELS 3 Zrotation Xrotation Yrotation
                          JOINT RightHandMiddle3
                          {
                            OFFSET -2.47579 0 0
                            CHANNELS 3 Zrotation Xrotation Yrotation
                            End Site
                            {
                              OFFSET -1.975 0 0
                            }
                          }
                        }
                      }
                    }
                    JOINT RightInHandRing
                    {
                      OFFSET -3.36516 0.537895 -0.128947
                      CHANNELS 3 Zrotation Xrotation Yrotation
                      JOINT RightHandRing1
                      {
                        OFFSET -4.63474 -0.022105 -0.478947
                        CHANNELS 3 Zrotation Xrotation Yrotation
                        JOINT RightHandRing2
                        {
                          OFFSET -3.44238 0 0
                          CHANNELS 3 Zrotation Xrotation Yrotation
                          JOINT RightHandRing3
                          {
                            OFFSET -2.3881 0 0
                            CHANNELS 3 Zrotation Xrotation Yrotation
                            End Site
                            {
                              OFFSET -1.857 0 0
                            }
                          }
                        }
                      }
                    }
                    JOINT RightInHandPinky
                    {
                      OFFSET -3.16105 0.469368 -1.20179
                      CHANNELS 3 Zrotation Xrotation Yrotation
                      JOINT RightHandPinky1
                      {
                        OFFSET -4.14105 -0.022105 -1.09053
                        CHANNELS 3 Zrotation Xrotation Yrotation
                        JOINT RightHandPinky2
                        {
                          OFFSET -2.75653 0 0
                          CHANNELS 3 Zrotation Xrotation Yrotation
                          JOINT RightHandPinky3
                          {
                            OFFSET -1.74189 0 0
                            CHANNELS 3 Zrotation Xrotation Yrotation
                            End Site
                            {
                              OFFSET -1.645 0 0
                            }
                          }
                        }
                      }
                    }
                  }
                }
              }
            }
            JOINT LeftShoulder
            {
              OFFSET 3.25131 6.94393 -0.0111894
              CHANNELS 3 Zrotation Xrotation Yrotation
              JOINT LeftArm
              {
                OFFSET 12.7762 -0.0164608 -0.057961
                CHANNELS 3 Zrotation Xrotation Yrotation
                JOINT LeftForeArm
                {
                  OFFSET 26.494 -0.0292415 -0.00751187
                  CHANNELS 3 Zrotation Xrotation Yrotation
                  JOINT LeftHand
                  {
                    OFFSET 26.0005 -0.052199 0.00178648
                    CHANNELS 3 Zrotation Xrotation Yrotation
                    JOINT LeftHandThumb1
                    {
                      OFFSET 2.48905 0.190105 3.12053
                      CHANNELS 3 Zrotation Xrotation Yrotation
                      JOINT LeftHandThumb2
                      {
                        OFFSET 3.68274 0 0
                        CHANNELS 3 Zrotation Xrotation Yrotation
                        JOINT LeftHandThumb3
                        {
                          OFFSET 2.55832 0 0
                          CHANNELS 3 Zrotation Xrotation Yrotation
                          End Site
                          {
                            OFFSET 2.194 0 0
                          }
                        }
                      }
                    }
                    JOINT LeftInHandIndex
                    {
                      OFFSET 3.22368 0.508421 1.97842
                      CHANNELS 3 Zrotation Xrotation Yrotation
                      JOINT LeftHandIndex1
                      {
                        OFFSET 5.21684 -0.091368 0.999158
                        CHANNELS 3 Zrotation Xrotation Yrotation
                        JOINT LeftHandIndex2
                        {
                          OFFSET 3.61937 0 0
                          CHANNELS 3 Zrotation Xrotation Yrotation
                          JOINT LeftHandIndex3
                          {
                            OFFSET 2.0521 0 0
                            CHANNELS 3 Zrotation Xrotation Yrotation
                            End Site
                            {
                              OFFSET 1.805 0 0
                            }
                          }
                        }
                      }
                    }
                    JOINT LeftInHandMiddle
                    {
                      OFFSET 3.38211 0.517263 0.756737
                      CHANNELS 3 Zrotation Xrotation Yrotation
                      JOINT LeftHandMiddle1
                      {
                        OFFSET 5.17411 -0.084 0.313895
                        CHANNELS 3 Zrotation Xrotation Yrotation
                        JOINT LeftHandMiddle2
                        {
                          OFFSET 3.94947 0 0
                          CHANNELS 3 Zrotation Xrotation Yrotation
                          JOINT LeftHandMiddle3
                          {
                            OFFSET 2.47579 0 0
                            CHANNELS 3 Zrotation Xrotation Yrotation
                            End Site
                            {
                              OFFSET 1.975 0 0
                            }
                          }
                        }
                      }
                    }
                    JOINT LeftInHandRing
                    {
                      OFFSET 3.36516 0.537895 -0.128947
                      CHANNELS 3 Zrotation Xrotation Yrotation
                      JOINT LeftHandRing1
                      {
                        OFFSET 4.63474 -0.022105 -0.478947
                        CHANNELS 3 Zrotation Xrotation Yrotation
                        JOINT LeftHandRing2
                        {
                          OFFSET 3.44238 0 0
                          CHANNELS 3 Zrotation Xrotation Yrotation
                          JOINT LeftHandRing3
                          {
                            OFFSET 2.3881 0 0
                            CHANNELS 3 Zrotation Xrotation Yrotation
                            End Site
                            {
                              OFFSET 1.857 0 0
                            }
                          }
                        }
                      }
                    }
                    JOINT LeftInHandPinky
                    {
                      OFFSET 3.16105 0.469368 -1.20179
                      CHANNELS 3 Zrotation Xrotation Yrotation
                      JOINT LeftHandPinky1
                      {
                        OFFSET 4.14105 -0.022105 -1.09053
                        CHANNELS 3 Zrotation Xrotation Yrotation
                        JOINT LeftHandPinky2
                        {
                          OFFSET 2.75653 0 0
                          CHANNELS 3 Zrotation Xrotation Yrotation
                          JOINT LeftHandPinky3
                          {
                            OFFSET 1.74189 0 0
                            CHANNELS 3 Zrotation Xrotation Yrotation
                            End Site
                            {
                              OFFSET 1.645 0 0
                            }
                          }
                        }
                      }
                    }
                  }
                }
              }
            }
          }
        }
      }
    }
  }
}
MOTION
Frames: 2
Frame Time: 0.00833333
4.500000000000000000e+02 0.000000000000000000e+00 0.000000000000000000e+00 0.000000000000000000e+00 0.000000000000000000e+00 0.000000000000000000e+00 9.884059864796337566e-03 -1.166674510505797367e-02 2.844879846988514552e-02 7.486989633019297888e-03 -1.109798208524545061e-02 1.932202665677660788e-02 -7.544984735160896808e-03 7.669073934096862569e-03 3.888554015052974461e-02 -1.514618595067298429e-02 -1.026193625787088712e-02 -7.290045172564561804e-02 8.521600979805513468e-03 -1.688755874131815313e-02 -1.094092939036810791e-01 -9.137008215865556615e-02 -1.712883671109916364e-02 9.557372758659832268e-02 5.504048983885329038e-02 1.419207442104671382e-02 3.699901344725246843e-02 1.926928400485499642e-03 6.032164501274187539e-03 -1.975463754642604181e-02 8.655343933169217267e-04 -1.718110051712525173e-04 -5.687993876117933972e-03 1.369277486258421890e-03 -1.310142046123861925e-03 -8.283590810459906181e-03 -6.807404186680357776e-04 -2.156822257648710606e-03 2.526154670982389949e-03 -6.551016443071171549e-03 -1.324304251887104336e-02 8.817365739360211174e-02 -8.816643059814048555e-03 5.325683622221373710e-03 -3.350354515412844875e-02 -2.500164379461047859e-02 -7.354421036020898812e-03 4.048502904039420411e-03 4.261498846213512826e-02 8.699014088270635991e-02 -2.517090630855979561e-02 -2.110911858286896453e-02 7.938755947452709461e-02 -7.719427461776487420e-02 -3.882518520055722178e-02 3.508595348305237893e-02 3.456195109446150160e-02 0.000000000000000000e+00 0.000000000000000000e+00 0.000000000000000000e+00 -1.509577011292615562e-15 -2.175724863498666838e-16 0.000000000000000000e+00 -1.387083763151863931e-15 -4.813838042528718580e-16 0.000000000000000000e+00 -1.040920623155760001e-15 -1.379821015458840423e-16 -1.784697001683320050e-15 0.000000000000000000e+00 0.000000000000000000e+00 0.000000000000000000e+00 0.000000000000000000e+00 2.370853132303516626e-16 1.104144130605058559e-15 0.000000000000000000e+00 -3.483170234652464457e-17 8.801299581061595099e-16 -1.040920623155760001e-15 -1.379821015458840423e-16 -1.784697001683320050e-15 0.000000000000000000e+00 2.514256894438494056e-15 -2.702169590581392125e-16 0.000000000000000000e+00 -9.528469919328595366e-16 -8.531146249799640451e-16 0.000000000000000000e+00 -1.299206211379101973e-16 1.837995140407682503e-15 -1.040920623155760001e-15 -1.379821015458840423e-16 -1.784697001683320050e-15 0.000000000000000000e+00 0.000000000000000000e+00 0.000000000000000000e+00 0.000000000000000000e+00 -3.826656572576342772e-16 7.122506504324372468e-16 0.000000000000000000e+00 -3.114402819836816989e-16 -4.284424821970931530e-16 -1.040920623155760001e-15 -1.379821015458840423e-16 -1.784697001683320050e-15 0.000000000000000000e+00 0.000000000000000000e+00 0.000000000000000000e+00 0.000000000000000000e+00 6.046468628461342647e-16 1.166878346727327351e-15 0.000000000000000000e+00 -3.479605606557217793e-16 1.640751046444213311e-16 1.744438905485329316e-02 -4.032312946038765084e-02 -1.059374345949091190e-01 -1.527761130999951700e-01 -2.964053506913141151e-03 1.713146447696635710e-01 -4.581065623429508155e-02 1.840155283346341444e-02 -6.224264045072942092e-02 1.620912342222263075e-02 6.344999151571446838e-04 2.941709435678070347e-02 0.000000000000000000e+00 0.000000000000000000e+00 0.000000000000000000e+00 3.015348584152734040e-16 5.897019068183172372e-17 0.000000000000000000e+00 2.121856978324755242e-16 4.000673380750722998e-16 0.000000000000000000e+00 2.796580135011317937e-16 4.322823572988219457e-16 -8.152390390810323500e-16 0.000000000000000000e+00 0.000000000000000000e+00 0.000000000000000000e+00 0.000000000000000000e+00 -2.637082544835840593e-16 -8.181855759004339865e-17 0.000000000000000000e+00 3.150923631313461166e-16 1.076214014702199541e-15 2.796580135011317937e-16 4.322823572988219457e-16 -8.152390390810323500e-16 0.000000000000000000e+00 6.417045539270164655e-16 -1.859424520882192394e-16 0.000000000000000000e+00 -9.093064770058678054e-16 6.044029339851128774e-16 0.000000000000000000e+00 1.160190149466380165e-15 -4.548818144152228358e-17 2.796580135011317937e-16 4.322823572988219457e-16 -8.152390390810323500e-16 0.000000000000000000e+00 0.000000000000000000e+00 0.000000000000000000e+00 0.000000000000000000e+00 1.129537718499163951e-15 -7.829988596760989494e-16 0.000000000000000000e+00 1.085818599106526196e-16 6.175311721406819278e-16 2.796580135011317937e-16 4.322823572988219457e-16 -8.152390390810323500e-16 0.000000000000000000e+00 0.000000000000000000e+00 0.000000000000000000e+00 0.000000000000000000e+00 1.719814799197688975e-15 -2.224685720112812974e-16 0.000000000000000000e+00 1.517753500070018329e-15 -7.244416430252950753e-17
4.500000000000000000e+02 0.000000000000000000e+00 0.000000000000000000e+00 0.000000000000000000e+00 0.000000000000000000e+00 0.000000000000000000e+00 5.315475643631946412e-03 -1.333300010874480072e-03 2.464555623497223860e-02 2.296670536560888737e-02 -1.119150681350482984e-02 5.692392044132463247e-02 -8.073337655393515375e-03 1.412124561413003430e-02 4.842227278800658070e-03 -1.385958475202225815e-02 -5.044178175653197573e-03 -6.630223368947246732e-02 -5.870846590158150524e-03 -1.151876998995510475e-03 -7.427448742515452285e-02 -6.383503742484154808e-02 -2.092889553803558775e-02 5.947436334167076344e-02 6.620824644283089533e-02 1.802485389674650731e-02 3.464596483061354454e-02 2.837907031729417894e-03 4.936315154635378434e-03 -2.111539512321827100e-02 1.052407932051697970e-03 -3.625669484658023008e-04 -5.672421608870844775e-03 1.657336611802156384e-03 -1.577551764477041086e-03 -9.066411506951952554e-03 1.352508537980932142e-04 -1.456165216397843154e-03 2.588010195334508514e-03 -5.760890693749478285e-03 -1.139890557239988528e-02 8.897833471184753151e-02 6.252756137772025498e-03 3.175384598279798595e-04 -3.434616228268431298e-02 -6.843085504439716180e-03 -8.144509181631150521e-03 1.149381766466616621e-03 8.338405221151724833e-02 1.126448621841387304e-01 3.426646396587468973e-02 -1.125941808109755388e-01 3.622400748416149119e-02 -5.412420574508734761e-02 -5.565060378746750080e-02 7.620420721496230787e-02 7.250272204182406366e-02 0.000000000000000000e+00 0.000000000000000000e+00 0.000000000000000000e+00 -1.487446135662580098e-15 -7.261434098413576850e-16 0.000000000000000000e+00 -1.887145089861929624e-15 -1.416236337016680881e-15 0.000000000000000000e+00 -1.578260484234987389e-15 3.511155773289791776e-16 -1.476128861297998434e-15 0.000000000000000000e+00 0.000000000000000000e+00 0.000000000000000000e+00 0.000000000000000000e+00 -5.344873757377636362e-16 5.610839258849985912e-17 0.000000000000000000e+00 -4.312422262324894828e-16 5.464410921337753294e-16 -1.578260484234987389e-15 3.511155773289791776e-16 -1.476128861297998434e-15 0.000000000000000000e+00 2.229062227177630778e-15 -4.833265697972409876e-16 0.000000000000000000e+00 -8.115809462546867144e-16 -8.562798303616023152e-16 0.000000000000000000e+00 2.813408588345376334e-16 1.720283024795347263e-15 -1.578260484234987389e-15 3.511155773289791776e-16 -1.476128861297998434e-15 0.000000000000000000e+00 0.000000000000000000e+00 0.000000000000000000e+00 0.000000000000000000e+00 5.181853448632971056e-16 8.526327179899826262e-16 0.000000000000000000e+00 -2.181423450002209328e-16 -6.070935002756567257e-16 -1.578260484234987389e-15 3.511155773289791776e-16 -1.476128861297998434e-15 0.000000000000000000e+00 0.000000000000000000e+00 0.000000000000000000e+00 0.000000000000000000e+00 4.842861427165278905e-17 1.510829976394322244e-15 0.000000000000000000e+00 -4.071320097003650928e-17 6.744762925981361145e-16 2.265324997829732886e-02 -2.304860241820086419e-02 -5.881075782135699453e-02 -1.205398916803583770e-01 -4.497539230540488660e-03 1.156561363600140113e-01 -3.263565512994729551e-02 3.372856937661170701e-02 -4.346891569229076324e-02 4.135062827216688663e-02 -1.627684974978843568e-01 1.498127853784436414e-01 0.000000000000000000e+00 0.000000000000000000e+00 0.000000000000000000e+00 1.111540807530842357e-16 2.274131207229582935e-16 0.000000000000000000e+00 2.082720916840534057e-16 2.020763445877761382e-16 0.000000000000000000e+00 3.639540215023461445e-16 4.268083640369215066e-16 -1.610789586168163141e-15 0.000000000000000000e+00 0.000000000000000000e+00 0.000000000000000000e+00 0.000000000000000000e+00 -4.791648258946970471e-16 7.072812657498321068e-16 0.000000000000000000e+00 2.088634932653844718e-16 8.230879301089363736e-16 3.639540215023461445e-16 4.268083640369215066e-16 -1.610789586168163141e-15 0.000000000000000000e+00 5.468525428885761553e-16 -3.368840091007736146e-17 0.000000000000000000e+00 -1.618856714963140514e-15 4.417415772430225128e-16 0.000000000000000000e+00 6.343244409367712503e-16 -4.521910222769888454e-17 3.639540215023461445e-16 4.268083640369215066e-16 -1.610789586168163141e-15 0.000000000000000000e+00 0.000000000000000000e+00 0.000000000000000000e+00 0.000000000000000000e+00 1.158374278250778591e-15 5.337794544781023135e-16 0.000000000000000000e+00 3.297064525928222896e-16 9.324128130920542946e-16 3.639540215023461445e-16 4.268083640369215066e-16 -1.610789586168163141e-15 0.000000000000000000e+00 0.000000000000000000e+00 0.000000000000000000e+00 0.000000000000000000e+00 1.483218957382475562e-15 -1.367922297191981499e-16 0.000000000000000000e+00 1.592308614881283619e-15 7.469969899596681641e-16
